<?xml version="1.0" standalone="no"?>
<!DOCTYPE svg PUBLIC "-//W3C//DTD SVG 20010904//EN"
 "http://www.w3.org/TR/2001/REC-SVG-20010904/DTD/svg10.dtd">
<svg version="1.0" xmlns="http://www.w3.org/2000/svg"
 width="190.000000pt" height="190.000000pt" viewBox="0 0 190.000000 190.000000"
 preserveAspectRatio="xMidYMid meet">
<metadata>
Created by potrace 1.14, written by Peter Selinger 2001-2017
</metadata>
<g transform="translate(0.000000,190.000000) scale(0.100000,-0.100000)"
fill="#000000" stroke="none">
<path d="M858 1889 c-13 -3 -31 -5 -40 -3 -10 1 -18 -3 -18 -9 0 -8 -3 -7 -9
1 -12 19 -19 -2 -17 -51 0 -20 -3 -37 -7 -37 -5 0 -5 -5 -2 -11 10 -15 11 -89
2 -89 -5 0 -5 -5 -1 -11 8 -13 11 -109 4 -109 -3 0 -3 -40 0 -90 3 -50 1 -90
-3 -90 -5 0 -5 -5 -2 -11 10 -15 11 -109 2 -109 -4 0 -3 -9 3 -20 7 -13 7 -20
1 -20 -6 0 -8 -7 -5 -15 9 -21 23 -19 90 15 35 18 82 33 116 37 32 3 55 10 52
15 -7 11 19 6 28 -6 4 -6 13 -4 22 3 9 8 16 9 16 4 0 -5 10 -9 23 -10 53 -2
83 -7 94 -16 7 -5 17 -6 23 -2 5 3 10 1 10 -4 0 -6 3 -10 8 -9 14 3 62 -14 62
-23 0 -5 5 -9 11 -9 13 0 76 -46 114 -85 59 -58 120 -156 129 -207 3 -13 5
-23 6 -23 3 0 10 -41 16 -90 7 -59 7 -59 4 -65 -1 -3 -3 -21 -5 -40 -4 -44
-23 -118 -38 -145 -6 -11 -12 -22 -12 -25 -4 -18 -30 -60 -37 -60 -4 0 -8 -5
-8 -10 0 -28 -175 -180 -206 -180 -8 0 -14 -4 -14 -10 0 -5 -16 -12 -35 -16
-19 -3 -35 -10 -35 -15 0 -4 -20 -11 -45 -15 -25 -3 -45 -9 -45 -13 0 -4 -22
-6 -49 -6 -27 0 -47 -4 -44 -8 3 -5 -34 -7 -81 -5 -48 2 -86 7 -86 13 0 6 -5
3 -10 -5 -6 -10 -10 -11 -10 -3 0 8 -11 11 -30 9 -16 -2 -30 0 -30 5 0 4 -13
7 -29 7 -15 -1 -34 3 -42 8 -8 5 -22 7 -31 6 -10 -2 -18 2 -18 7 0 6 -11 11
-25 11 -14 0 -25 5 -25 11 0 5 -4 7 -10 4 -5 -3 -27 3 -48 14 -22 11 -42 17
-46 14 -3 -4 -6 -1 -6 5 0 6 -13 13 -29 17 -16 3 -35 13 -42 21 -6 8 -18 14
-25 14 -8 0 -14 5 -14 10 0 6 -5 10 -11 10 -13 0 -124 76 -155 105 -11 11 -39
36 -61 56 -22 20 -47 46 -55 58 -10 14 -18 18 -23 12 -3 -6 -1 -11 4 -11 6 0
11 -9 11 -19 0 -11 5 -23 10 -26 6 -4 8 -11 5 -16 -4 -5 -1 -9 5 -9 6 0 8 -4
5 -10 -3 -5 -3 -10 2 -10 4 0 17 -18 27 -40 11 -22 23 -40 27 -40 4 0 10 -9
14 -20 13 -40 224 -240 254 -240 6 0 11 -5 11 -11 0 -5 4 -7 10 -4 5 3 10 2
10 -3 0 -9 50 -37 63 -34 4 1 7 -2 7 -8 0 -5 6 -10 13 -10 8 0 28 -7 46 -16
17 -9 40 -17 49 -19 9 -2 17 -4 17 -5 0 -3 38 -11 73 -17 17 -3 32 -8 32 -12
0 -3 15 -7 33 -8 17 0 64 -3 102 -5 41 -3 76 0 84 6 11 8 13 8 7 -1 -9 -16 6
-17 22 -1 9 9 12 9 12 0 0 -6 6 -9 13 -7 16 6 65 15 102 20 17 2 42 8 56 14
15 5 30 7 33 4 3 -4 6 -1 6 6 0 7 4 10 8 7 5 -3 19 1 33 8 13 7 26 13 29 14
43 13 70 26 70 33 0 4 7 6 15 3 8 -4 15 -1 15 4 0 6 18 18 40 28 21 10 37 21
34 26 -3 4 1 8 8 8 7 0 31 15 52 33 55 45 130 117 122 117 -3 0 2 8 12 18 9
10 26 31 37 46 11 16 26 34 33 42 7 8 10 14 5 14 -4 0 -3 4 3 8 11 7 84 151
88 174 2 7 9 33 16 58 7 25 13 53 12 63 0 9 3 15 7 13 4 -3 7 13 6 35 -1 21 2
39 5 39 12 0 0 293 -13 306 -4 4 -7 18 -7 31 0 13 -5 23 -11 23 -5 0 -7 5 -3
11 3 6 2 21 -4 32 -17 36 -25 62 -23 71 1 5 -2 12 -6 15 -4 3 -19 29 -33 56
-14 28 -33 59 -42 69 -10 10 -15 23 -12 28 3 4 0 8 -7 8 -7 0 -10 3 -7 6 3 3
-9 21 -28 40 -19 19 -32 34 -30 34 9 0 -89 94 -130 124 -21 17 -41 32 -44 35
-27 31 -234 124 -277 126 -6 0 -15 4 -19 8 -4 4 -17 7 -30 7 -12 0 -25 6 -27
13 -4 9 -6 9 -6 -1 -1 -7 -6 -10 -11 -7 -26 16 -218 26 -262 14z"/>
<path d="M370 1693 c-19 -17 -36 -30 -39 -29 -4 2 -14 -5 -23 -16 -10 -10 -17
-18 -15 -18 2 0 -21 -25 -50 -57 -29 -31 -53 -60 -53 -64 0 -4 -6 -14 -14 -21
-7 -8 -25 -35 -38 -61 -14 -25 -28 -43 -33 -39 -4 4 -6 0 -4 -8 2 -8 -5 -30
-14 -48 -10 -18 -15 -37 -12 -42 3 -6 1 -10 -4 -10 -6 0 -11 -9 -11 -21 0 -11
-4 -18 -8 -15 -5 3 -8 -5 -7 -17 1 -12 -1 -27 -6 -32 -4 -6 -9 -28 -11 -48 -1
-20 -6 -37 -11 -37 -5 0 -7 -7 -4 -14 3 -8 2 -38 -2 -65 -6 -35 -5 -51 3 -51
8 0 8 -3 0 -8 -9 -6 -10 -43 -2 -84 3 -14 108 -123 108 -112 0 2 8 -4 18 -13
10 -10 31 -27 46 -38 16 -11 33 -25 40 -30 22 -20 71 -49 79 -47 4 1 7 -2 7
-7 0 -5 22 -20 50 -32 27 -12 50 -26 50 -31 0 -4 8 -8 19 -8 10 0 31 -7 47
-15 16 -8 48 -17 71 -21 24 -3 43 -9 43 -13 0 -4 10 -7 23 -8 12 -1 47 -4 77
-8 109 -15 292 -8 355 12 11 4 23 7 28 8 22 1 82 64 99 103 24 53 33 116 16
106 -7 -4 -8 -3 -4 5 11 17 -13 80 -43 113 -14 16 -45 38 -68 49 -41 19 -133
26 -147 12 -4 -5 -11 -8 -14 -9 -35 -4 -83 -48 -109 -98 -27 -52 -20 -196 9
-196 5 0 7 -4 4 -8 -3 -5 6 -16 20 -26 13 -11 24 -23 24 -28 0 -11 -130 -6
-137 5 -3 5 -9 3 -14 -4 -5 -8 -9 -9 -9 -3 0 6 -14 10 -30 9 -17 -1 -33 2 -36
7 -3 4 -15 8 -28 8 -26 0 -145 38 -166 54 -18 13 -22 58 -6 68 7 5 7 8 -3 8
-10 0 -11 3 -2 13 6 8 8 16 5 20 -11 11 -11 117 0 117 6 0 5 4 -3 9 -9 6 -10
11 -2 15 6 4 9 12 5 17 -11 19 -12 79 -1 79 8 0 7 4 -2 9 -9 6 -10 11 -2 15 8
5 8 13 0 28 -9 16 -8 23 2 29 12 7 12 9 0 9 -10 0 -11 3 -2 13 6 8 8 16 5 19
-11 11 -11 158 0 158 6 0 5 4 -3 9 -9 6 -10 11 -2 15 6 4 9 12 5 17 -11 18
-11 159 0 159 6 0 5 4 -3 9 -9 6 -10 11 -2 15 8 5 8 13 0 28 -9 16 -8 23 2 29
12 7 12 9 0 9 -10 0 -11 3 -2 13 6 8 8 16 5 19 -11 12 -12 78 -1 78 8 0 8 3 0
11 -7 7 -8 21 -3 38 11 38 -17 36 -60 -6z"/>
</g>
</svg>
