<?xml version="1.0" encoding="utf-8"?>
<!-- Generator: Adobe Illustrator 25.1.0, SVG Export Plug-In . SVG Version: 6.00 Build 0)  -->
<svg version="1.1" id="Livello_1" xmlns="http://www.w3.org/2000/svg" xmlns:xlink="http://www.w3.org/1999/xlink" x="0px" y="0px"
	 viewBox="0 0 840 137.4" style="enable-background:new 0 0 840 137.4;" xml:space="preserve">
<style type="text/css">
	.st0{fill:#FFFFFF;}
</style>
<g>
	<rect id="XMLID_32_" x="658.2" y="53.7" class="st0" width="32.8" height="77.5"/>
	<rect id="XMLID_31_" x="807.1" y="53.7" class="st0" width="32.9" height="77.5"/>
	<path class="st0" d="M71.6,0C67,0,62.5,0.4,58.1,1.2L58,51.3c6.4-4.2,14.1-6.8,22.4-6.8c21.9,0,39.7,17,39.7,38.1
		c0,13.1-6.9,24.7-17.5,31.6c0,0-14,11.8-37.6,9.5C28.4,120.1,7.5,96.6,4.7,93.3C15,119.1,41,137.4,71.6,137.4
		c39.5,0,71.6-30.7,71.6-68.6C143.2,30.7,111.1,0,71.6,0 M78.4,100.1c6.5-1.7,11.3-7.5,11.3-14.3c0-8.2-6.9-14.8-15.5-14.8
		s-15.5,6.6-15.5,14.8c0,5.4,2.9,10.2,7.3,12.8c-22.9,0.3-34.6-6.5-34.6-6.5V11.8C12.5,24.1,0,45,0,68.6c0,1.7,0.1,3.3,0.2,4.9
		c2,2,20.8,21.1,42.2,25.7C65,104.2,78.4,100.1,78.4,100.1"/>
	<path class="st0" d="M224.3,110.1h-24.7V84.5h24c0,0,14.2,2,14.2,12.3C237.7,107.7,224.3,110.1,224.3,110.1 M199.9,37.3h22.6
		c0,0,13.4,2,13.4,11.8c0,10.5-12.7,12.8-12.7,12.8h-23.3L199.9,37.3L199.9,37.3z M244.1,70.8c0,0,25-1.3,25-26.3
		c0-27.6-37.3-27.9-37.3-27.9h-70.5v114.5H238c0,0,34.9-3.9,34.9-30.2C272.9,74.7,244.1,70.8,244.1,70.8"/>
	<path id="XMLID_25_" class="st0" d="M320.4,63.8V53.4h-33.2v77.5h33.2V80.3c10.1-9.8,32.2-1.3,32.2-1.3V51.7
		C336.1,52.2,325.3,59.5,320.4,63.8"/>
	<path id="XMLID_24_" class="st0" d="M508.4,77v54.2h31.8V77c0,0,0.2-13.1-3.4-16.8c-2.1-2.2-7.6-9-24-9S484,63.6,484,63.6v-9.9
		h-32.8v77.5H484V77.1c0,0,7.9-7.9,14.1-7.9C508.4,69.2,508.4,77,508.4,77"/>
	<path id="XMLID_23_" class="st0" d="M760.8,77v54.2h31.8V77c0,0,0.2-13.1-3.4-16.8c-2.1-2.2-7.6-9-24-9s-28.8,12.4-28.8,12.4v-9.9
		h-32.9v77.5h32.9V77.1c0,0,7.9-7.9,14.1-7.9C760.9,69.2,760.8,77,760.8,77"/>
	<path class="st0" d="M407.7,110.5l-6.2,4.3c-6.9,3.3-11,1-14.4-2.3c-2.2-2.1-4.1-6.2,0.3-11.8c4.1-5.1,20.2-4.9,20.2-4.9v14.7
		H407.7z M442.6,129.8c-3.6-7.1-3.8-19.7-3.8-26.3c0-6.6,0.6-28.9,0.3-33.2c-0.3-6.6-6.5-11.8-12-14.8s-20.2-4.6-42.8-3.6
		c-22.6,1-27.1,19.7-27.1,19.7l26.7,4.9c0,0,1.7-9.5,12.7-9.2c14.4,0.4,11.3,14.8,11.3,14.8s-1,0.3-14.7,0.3s-24.8,4.1-32.9,11.2
		c-8.6,7.5-8.6,21-3.8,28.9c4.7,7.7,16.4,9.5,27.7,9.5c11.3,0,23.6-8.9,23.6-8.9c-0.3,2.6,1.7,7.9,1.7,7.9H443
		C443.3,131.1,442.9,130.4,442.6,129.8"/>
	<path id="XMLID_20_" class="st0" d="M838.8,33.4c0,8.2-6.9,14.8-15.4,14.8S808,41.6,808,33.4c0-8.1,6.9-14.8,15.4-14.8
		C832,18.6,838.8,25.2,838.8,33.4"/>
	<path class="st0" d="M600.2,116.1c-9.5,0-17.2-10.9-17.2-24.4s7.7-24.5,17.2-24.5c4.6,0,8.9,2.6,11.9,6.9v35.2
		C609.1,113.5,604.9,116.1,600.2,116.1 M612.2,20.3v41.5c-6.7-6.4-15.4-10.4-25.1-10.4c-20.8,0-37.7,18.2-37.7,40.8
		c0,22.5,16.9,40.8,37.7,40.8c9.6,0,18.4-3.9,25.1-10.4v8.5H645V20.3H612.2z"/>
	<path id="XMLID_17_" class="st0" d="M689.9,33.4c0,8.2-6.9,14.8-15.4,14.8s-15.4-6.6-15.4-14.8c0-8.1,6.9-14.8,15.4-14.8
		S689.9,25.2,689.9,33.4"/>
</g>
</svg>
